<svg xmlns="http://www.w3.org/2000/svg" version="1.1" xmlns:xlink="http://www.w3.org/1999/xlink" xmlns:svgjs="http://svgjs.dev/svgjs" width="1000" height="207" viewBox="0 0 1000 207"><g transform="matrix(1,0,0,1,-0.6060606060606233,-0.44972151010877326)"><svg viewBox="0 0 396 82" data-background-color="#dedede" preserveAspectRatio="xMidYMid meet" height="207" width="1000" xmlns="http://www.w3.org/2000/svg" xmlns:xlink="http://www.w3.org/1999/xlink"><g id="tight-bounds" transform="matrix(1,0,0,1,0.2400000000000091,0.17815054989816304)"><svg viewBox="0 0 395.52 81.64369890020366" height="81.64369890020366" width="395.52"><g><svg viewBox="0 0 395.52 81.64369890020366" height="81.64369890020366" width="395.52"><g><svg viewBox="0 0 395.52 81.64369890020366" height="81.64369890020366" width="395.52"><g><svg viewBox="0 0 395.52 81.64369890020366" height="81.64369890020366" width="395.52"><g><svg viewBox="0 0 395.52 81.64369890020366" height="81.64369890020366" width="395.52"><rect width="395.52" height="81.64369890020366" x="0" y="0" opacity="1" fill="#000000" data-fill-palette-color="tertiary"></rect><g transform="matrix(1,0,0,1,23.607599999999998,23.607599999999998)"><svg width="348.3048" viewBox="3.299999952316284 -35.70000076293945 368.2200012207031 36.400001525878906" height="34.428498900203664" data-palette-color="#dedede"><path d="M3.3 0L3.3-35 8.45-35 22.3-9.4 22.3-35 26.85-35 26.85 0 22.6 0 7.85-27.05 7.85 0 3.3 0ZM33.45 0L33.45-35 51.9-35 51.9-30.85 38-30.85 38-20.45 48.75-20.45 48.75-16.25 38-16.25 38 0 33.45 0ZM62.25 0L62.25-30.85 53.55-30.85 53.55-35 75.55-35 75.55-30.85 66.84-30.85 66.84 0 62.25 0ZM119.79 0L114.89 0 112.59-25.3 104.14-7.25 95.69-25.3 93.34 0 88.49 0 92.29-35 96.14-35 104.14-16.95 112.14-35 115.99-35 119.79 0ZM143.34 0L140.54-9.5 129.69-9.5 126.89 0 121.99 0 132.74-35 137.44-35 148.19 0 143.34 0ZM130.94-13.75L139.29-13.75 135.09-27.95 130.94-13.75ZM152.24 0L152.24-35 161.24-35Q166.74-35 169.81-32.27 172.89-29.55 172.89-24.3L172.89-24.3Q172.89-21.3 171.46-18.88 170.04-16.45 167.49-15.05L167.49-15.05 174.49 0 169.09 0 162.84-13.7Q162.04-13.6 161.19-13.6L161.19-13.6 156.79-13.6 156.79 0 152.24 0ZM156.79-17.8L160.84-17.8Q164.64-17.8 166.39-19.45 168.14-21.1 168.14-24.3L168.14-24.3Q168.14-27.55 166.39-29.2 164.64-30.85 160.84-30.85L160.84-30.85 156.79-30.85 156.79-17.8ZM179.83 0L179.83-35 184.38-35 184.38 0 179.83 0ZM195.88 0L184.63-18.55 195.88-35 200.93-35 189.58-18.55 200.93 0 195.88 0ZM205.28 0L205.28-35 223.98-35 223.98-30.85 209.83-30.85 209.83-20.4 221.03-20.4 221.03-16.2 209.83-16.2 209.83-4.15 224.38-4.15 224.38 0 205.28 0ZM235.43 0L235.43-30.85 226.73-30.85 226.73-35 248.73-35 248.73-30.85 240.03-30.85 240.03 0 235.43 0ZM253.33 0L253.33-35 262.33-35Q267.83-35 270.9-32.1 273.98-29.2 273.98-23.65L273.98-23.65Q273.98-18.1 270.9-15.18 267.83-12.25 262.33-12.25L262.33-12.25 257.93-12.25 257.93 0 253.33 0ZM257.93-16.45L261.93-16.45Q269.23-16.45 269.23-23.65L269.23-23.65Q269.23-30.85 261.93-30.85L261.93-30.85 257.93-30.85 257.93-16.45ZM278.17 0L278.17-35 282.72-35 282.72-4.15 296.07-4.15 296.07 0 278.17 0ZM318.12 0L315.32-9.5 304.47-9.5 301.67 0 296.77 0 307.52-35 312.22-35 322.97 0 318.12 0ZM305.72-13.75L314.07-13.75 309.87-27.95 305.72-13.75ZM340.42 0.7Q335.57 0.7 331.97-1.53 328.37-3.75 326.39-7.88 324.42-12 324.42-17.5L324.42-17.5Q324.42-22.95 326.44-27.08 328.47-31.2 332.07-33.45 335.67-35.7 340.22-35.7L340.22-35.7Q344.22-35.7 347.82-34.2L347.82-34.2 347.32-29.95Q344.12-31.55 341.12-31.55L341.12-31.55Q337.42-31.55 334.79-29.7 332.17-27.85 330.82-24.65 329.47-21.45 329.47-17.5L329.47-17.5Q329.47-13.55 330.82-10.35 332.17-7.15 334.79-5.3 337.42-3.45 341.17-3.45L341.17-3.45Q344.42-3.45 347.32-4.95L347.32-4.95 347.82-0.7Q344.62 0.7 340.42 0.7L340.42 0.7ZM352.42 0L352.42-35 371.12-35 371.12-30.85 356.97-30.85 356.97-20.4 368.17-20.4 368.17-16.2 356.97-16.2 356.97-4.15 371.52-4.15 371.52 0 352.42 0Z" opacity="1" transform="matrix(1,0,0,1,0,0)" fill="#dedede" class="undefined-text-0" data-fill-palette-color="quaternary" id="text-0"></path></svg></g></svg></g></svg></g></svg></g></svg></g><defs></defs></svg><rect width="395.52" height="81.64369890020366" fill="none" stroke="none" visibility="hidden"></rect></g></svg></g></svg>